G04 #@! TF.GenerationSoftware,KiCad,Pcbnew,(5.0.0-3-g5ebb6b6)*
G04 #@! TF.CreationDate,2019-03-01T00:57:23+03:00*
G04 #@! TF.ProjectId,mae,6D61652E6B696361645F706362000000,rev?*
G04 #@! TF.SameCoordinates,Original*
G04 #@! TF.FileFunction,Copper,L1,Top,Signal*
G04 #@! TF.FilePolarity,Positive*
%FSLAX46Y46*%
G04 Gerber Fmt 4.6, Leading zero omitted, Abs format (unit mm)*
G04 Created by KiCad (PCBNEW (5.0.0-3-g5ebb6b6)) date *
%MOMM*%
%LPD*%
G01*
G04 APERTURE LIST*
G04 #@! TA.AperFunction,SMDPad,CuDef*
%ADD10R,1.000000X1.500000*%
G04 #@! TD*
G04 #@! TA.AperFunction,SMDPad,CuDef*
%ADD11R,0.400000X1.500000*%
G04 #@! TD*
G04 #@! TA.AperFunction,SMDPad,CuDef*
%ADD12R,1.000000X1.000000*%
G04 #@! TD*
G04 #@! TA.AperFunction,SMDPad,CuDef*
%ADD13R,0.800000X1.100000*%
G04 #@! TD*
G04 #@! TA.AperFunction,SMDPad,CuDef*
%ADD14R,0.750000X1.500000*%
G04 #@! TD*
G04 #@! TA.AperFunction,SMDPad,CuDef*
%ADD15R,2.000000X2.000000*%
G04 #@! TD*
G04 #@! TA.AperFunction,SMDPad,CuDef*
%ADD16R,1.500000X0.750000*%
G04 #@! TD*
G04 #@! TA.AperFunction,ComponentPad*
%ADD17R,1.700000X1.700000*%
G04 #@! TD*
G04 #@! TA.AperFunction,ComponentPad*
%ADD18C,1.700000*%
G04 #@! TD*
G04 #@! TA.AperFunction,SMDPad,CuDef*
%ADD19O,1.700000X5.700000*%
G04 #@! TD*
G04 #@! TA.AperFunction,SMDPad,CuDef*
%ADD20R,1.700000X5.700000*%
G04 #@! TD*
G04 #@! TA.AperFunction,SMDPad,CuDef*
%ADD21R,1.500000X1.000000*%
G04 #@! TD*
G04 #@! TA.AperFunction,ViaPad*
%ADD22C,0.800000*%
G04 #@! TD*
G04 #@! TA.AperFunction,Conductor*
%ADD23C,0.250000*%
G04 #@! TD*
G04 APERTURE END LIST*
D10*
G04 #@! TO.P,C3,1*
G04 #@! TO.N,/VCC*
X107000000Y-149000000D03*
G04 #@! TO.P,C3,2*
G04 #@! TO.N,/0\0412*
X109000000Y-149000000D03*
G04 #@! TD*
D11*
G04 #@! TO.P,DD1,11*
G04 #@! TO.N,/ADCT2*
X111100000Y-136000000D03*
G04 #@! TO.P,DD1,10*
G04 #@! TO.N,/EnRS*
X111100000Y-142000000D03*
G04 #@! TO.P,DD1,12*
G04 #@! TO.N,/ADC_T1*
X110450000Y-136000000D03*
G04 #@! TO.P,DD1,9*
G04 #@! TO.N,/RX*
X110450000Y-142000000D03*
G04 #@! TO.P,DD1,13*
G04 #@! TO.N,/ADC_3V*
X109800000Y-136000000D03*
G04 #@! TO.P,DD1,8*
G04 #@! TO.N,/TX*
X109800000Y-142000000D03*
G04 #@! TO.P,DD1,14*
G04 #@! TO.N,/ADC5_6V*
X109150000Y-136000000D03*
G04 #@! TO.P,DD1,7*
G04 #@! TO.N,/G1*
X109150000Y-142000000D03*
G04 #@! TO.P,DD1,15*
G04 #@! TO.N,/0\0412*
X108500000Y-136000000D03*
G04 #@! TO.P,DD1,6*
G04 #@! TO.N,/G2*
X108500000Y-142000000D03*
G04 #@! TO.P,DD1,16*
G04 #@! TO.N,/VCC*
X107850000Y-136000000D03*
G04 #@! TO.P,DD1,5*
X107850000Y-142000000D03*
G04 #@! TO.P,DD1,17*
G04 #@! TO.N,/TXboot_SCL*
X107200000Y-136000000D03*
G04 #@! TO.P,DD1,4*
G04 #@! TO.N,/RES*
X107200000Y-142000000D03*
G04 #@! TO.P,DD1,18*
G04 #@! TO.N,/RXboot_SDA*
X106550000Y-136000000D03*
G04 #@! TO.P,DD1,3*
G04 #@! TO.N,/G3*
X106550000Y-142000000D03*
G04 #@! TO.P,DD1,19*
G04 #@! TO.N,/DIO*
X105900000Y-136000000D03*
G04 #@! TO.P,DD1,2*
G04 #@! TO.N,/G4*
X105900000Y-142000000D03*
G04 #@! TO.P,DD1,20*
G04 #@! TO.N,/CLK*
X105250000Y-136000000D03*
G04 #@! TO.P,DD1,1*
G04 #@! TO.N,/BOOT_mode*
X105250000Y-142000000D03*
G04 #@! TD*
D10*
G04 #@! TO.P,C4,2*
G04 #@! TO.N,/0\0412*
X120250000Y-128000000D03*
G04 #@! TO.P,C4,1*
G04 #@! TO.N,/VCC*
X118250000Y-128000000D03*
G04 #@! TD*
D12*
G04 #@! TO.P,HL1,1*
G04 #@! TO.N,Net-(HL1-Pad1)*
X96000000Y-131750000D03*
G04 #@! TO.P,HL1,2*
G04 #@! TO.N,/0\0412*
X97500000Y-131750000D03*
G04 #@! TD*
D10*
G04 #@! TO.P,R1,1*
G04 #@! TO.N,Net-(R1-Pad1)*
X98000000Y-129250000D03*
G04 #@! TO.P,R1,2*
G04 #@! TO.N,Net-(HL1-Pad1)*
X96000000Y-129250000D03*
G04 #@! TD*
D13*
G04 #@! TO.P,VD1,1*
G04 #@! TO.N,/VCCprog*
X121700000Y-147150000D03*
X119800000Y-147150000D03*
G04 #@! TO.P,VD1,2*
G04 #@! TO.N,/VCC*
X120750000Y-149350000D03*
G04 #@! TD*
D14*
G04 #@! TO.P,X1,1*
G04 #@! TO.N,Net-(R1-Pad1)*
X98000000Y-127000000D03*
G04 #@! TO.P,X1,2*
G04 #@! TO.N,/VCC*
X96500000Y-127000000D03*
G04 #@! TD*
D15*
G04 #@! TO.P,K1,1*
G04 #@! TO.N,/BOOT_mode*
X96250000Y-144500000D03*
G04 #@! TO.P,K1,2*
G04 #@! TO.N,/VCC*
X96250000Y-134500000D03*
G04 #@! TD*
G04 #@! TO.P,K2,2*
G04 #@! TO.N,/0\0412*
X100250000Y-134500000D03*
G04 #@! TO.P,K2,1*
G04 #@! TO.N,/RES*
X100250000Y-144500000D03*
G04 #@! TD*
D16*
G04 #@! TO.P,C1,2*
G04 #@! TO.N,/0\0412*
X99750000Y-148250000D03*
G04 #@! TO.P,C1,1*
G04 #@! TO.N,/G4*
X99750000Y-149750000D03*
G04 #@! TD*
G04 #@! TO.P,C2,1*
G04 #@! TO.N,/G3*
X97250000Y-149750000D03*
G04 #@! TO.P,C2,2*
G04 #@! TO.N,/0\0412*
X97250000Y-148250000D03*
G04 #@! TD*
D17*
G04 #@! TO.P,XP4,10*
G04 #@! TO.N,/ADCT2*
X119610000Y-124000000D03*
G04 #@! TO.P,XP4,9*
G04 #@! TO.N,/ADC_T1*
X117070000Y-124000000D03*
G04 #@! TO.P,XP4,8*
G04 #@! TO.N,/ADC_3V*
X114530000Y-124000000D03*
G04 #@! TO.P,XP4,7*
G04 #@! TO.N,/ADC5_6V*
X111990000Y-124000000D03*
G04 #@! TO.P,XP4,6*
G04 #@! TO.N,/0\0412*
X109450000Y-124000000D03*
G04 #@! TO.P,XP4,5*
G04 #@! TO.N,/VCC*
X106910000Y-124000000D03*
G04 #@! TO.P,XP4,4*
G04 #@! TO.N,/TXboot_SCL*
X104370000Y-124000000D03*
G04 #@! TO.P,XP4,3*
G04 #@! TO.N,/RXboot_SDA*
X101830000Y-124000000D03*
G04 #@! TO.P,XP4,2*
G04 #@! TO.N,/DIO*
X99290000Y-124000000D03*
D18*
G04 #@! TO.P,XP4,1*
G04 #@! TO.N,/CLK*
X96750000Y-124000000D03*
G04 #@! TD*
G04 #@! TO.P,XP1,1*
G04 #@! TO.N,/BOOT_mode*
X96750000Y-154000000D03*
D17*
G04 #@! TO.P,XP1,2*
G04 #@! TO.N,/G4*
X99290000Y-154000000D03*
G04 #@! TO.P,XP1,3*
G04 #@! TO.N,/G3*
X101830000Y-154000000D03*
G04 #@! TO.P,XP1,4*
G04 #@! TO.N,/RES*
X104370000Y-154000000D03*
G04 #@! TO.P,XP1,5*
G04 #@! TO.N,/VCC*
X106910000Y-154000000D03*
G04 #@! TO.P,XP1,6*
G04 #@! TO.N,/G2*
X109450000Y-154000000D03*
G04 #@! TO.P,XP1,7*
G04 #@! TO.N,/G1*
X111990000Y-154000000D03*
G04 #@! TO.P,XP1,8*
G04 #@! TO.N,/TX*
X114530000Y-154000000D03*
G04 #@! TO.P,XP1,9*
G04 #@! TO.N,/RX*
X117070000Y-154000000D03*
G04 #@! TO.P,XP1,10*
G04 #@! TO.N,/EnRS*
X119610000Y-154000000D03*
G04 #@! TD*
D19*
G04 #@! TO.P,XP2,1*
G04 #@! TO.N,/RXboot_SDA*
X102500000Y-128750000D03*
D20*
G04 #@! TO.P,XP2,2*
G04 #@! TO.N,/TXboot_SCL*
X105040000Y-128750000D03*
G04 #@! TO.P,XP2,3*
G04 #@! TO.N,/VCC*
X107580000Y-128750000D03*
G04 #@! TO.P,XP2,4*
G04 #@! TO.N,/0\0412*
X110120000Y-128750000D03*
G04 #@! TD*
D19*
G04 #@! TO.P,XP3,1*
G04 #@! TO.N,/DIO*
X120750000Y-135250000D03*
D20*
G04 #@! TO.P,XP3,3*
G04 #@! TO.N,/CLK*
X118210000Y-135250000D03*
G04 #@! TO.P,XP3,5*
G04 #@! TO.N,/RES*
X115670000Y-135250000D03*
G04 #@! TO.P,XP3,2*
G04 #@! TO.N,/VCCprog*
X120750000Y-141790000D03*
G04 #@! TO.P,XP3,4*
G04 #@! TO.N,/BOOT_mode*
X118210000Y-141790000D03*
G04 #@! TO.P,XP3,6*
G04 #@! TO.N,/0\0412*
X115670000Y-141790000D03*
G04 #@! TD*
D21*
G04 #@! TO.P,R2,1*
G04 #@! TO.N,/0\0412*
X94750000Y-148250000D03*
G04 #@! TO.P,R2,2*
G04 #@! TO.N,/BOOT_mode*
X94750000Y-150250000D03*
G04 #@! TD*
D10*
G04 #@! TO.P,R3,2*
G04 #@! TO.N,/RES*
X118250000Y-130750000D03*
G04 #@! TO.P,R3,1*
G04 #@! TO.N,/VCC*
X120250000Y-130750000D03*
G04 #@! TD*
D22*
G04 #@! TO.N,/0\0412*
X115750000Y-139750000D03*
X110250000Y-126750000D03*
X109000000Y-150750000D03*
X99250000Y-131750000D03*
X95000000Y-142500000D03*
X100250000Y-136250000D03*
X121000000Y-126000000D03*
X98500000Y-145500000D03*
G04 #@! TO.N,/G3*
X97250000Y-151250000D03*
G04 #@! TO.N,/RES*
X104500000Y-148750000D03*
X115750000Y-137250000D03*
X107125000Y-140250000D03*
X102000000Y-143750000D03*
G04 #@! TO.N,/BOOT_mode*
X118250000Y-140000000D03*
X105175000Y-143750000D03*
G04 #@! TO.N,/DIO*
X120750000Y-137250000D03*
X106000000Y-137500000D03*
G04 #@! TO.N,/CLK*
X118250000Y-137250000D03*
X105250000Y-138250000D03*
G04 #@! TD*
D23*
G04 #@! TO.N,*
X104500000Y-143000000D02*
X104000000Y-142500000D01*
X104000000Y-142500000D02*
X104000000Y-143500000D01*
X104000000Y-143500000D02*
X104500000Y-143000000D01*
X108000000Y-148750000D02*
X108000000Y-149250000D01*
X119250000Y-127750000D02*
X119250000Y-128250000D01*
X97000000Y-149000000D02*
X97500000Y-149000000D01*
X99500000Y-149000000D02*
X100000000Y-149000000D01*
G04 #@! TO.N,/0\0412*
X109450000Y-125100000D02*
X110000000Y-125650000D01*
X109450000Y-124000000D02*
X109450000Y-125100000D01*
X110000000Y-125650000D02*
X110000000Y-126750000D01*
X108500000Y-136000000D02*
X108500000Y-133500000D01*
X108500000Y-133500000D02*
X110000000Y-132000000D01*
X110000000Y-132000000D02*
X110000000Y-130250000D01*
X115710000Y-139790000D02*
X115750000Y-139750000D01*
X115670000Y-139790000D02*
X115710000Y-139790000D01*
X110120000Y-126750000D02*
X110250000Y-126750000D01*
X109000000Y-149000000D02*
X109000000Y-150750000D01*
X97500000Y-131750000D02*
X99250000Y-131750000D01*
X94750000Y-142750000D02*
X95000000Y-142500000D01*
X94750000Y-148250000D02*
X94750000Y-142750000D01*
X100250000Y-134500000D02*
X100250000Y-136250000D01*
X120250000Y-126750000D02*
X120250000Y-128000000D01*
X121000000Y-126000000D02*
X120250000Y-126750000D01*
X97250000Y-146750000D02*
X98500000Y-145500000D01*
X97250000Y-148250000D02*
X97250000Y-146750000D01*
X99750000Y-146750000D02*
X98500000Y-145500000D01*
X99750000Y-148250000D02*
X99750000Y-146750000D01*
X99250000Y-131750000D02*
X99250000Y-132750000D01*
X99250000Y-132750000D02*
X98750000Y-132750000D01*
X99250000Y-132750000D02*
X99750000Y-132750000D01*
X112000000Y-127750000D02*
X111500000Y-127750000D01*
X112000000Y-127750000D02*
X112500000Y-127750000D01*
X112000000Y-126750000D02*
X112000000Y-127750000D01*
X110250000Y-126750000D02*
X112000000Y-126750000D01*
X115750000Y-139750000D02*
X113750000Y-139750000D01*
X113750000Y-139750000D02*
X113750000Y-140750000D01*
X113750000Y-140750000D02*
X113250000Y-140750000D01*
X113750000Y-140750000D02*
X114250000Y-140750000D01*
G04 #@! TO.N,/VCC*
X106910000Y-125100000D02*
X107500000Y-125690000D01*
X106910000Y-124000000D02*
X106910000Y-125100000D01*
X107500000Y-125690000D02*
X107500000Y-127000000D01*
X107850000Y-136000000D02*
X107850000Y-132350000D01*
X107850000Y-132350000D02*
X107500000Y-132000000D01*
X107500000Y-132000000D02*
X107500000Y-129250000D01*
X106910000Y-154000000D02*
X106910000Y-149090000D01*
X107000000Y-149000000D02*
X107000000Y-147500000D01*
X107850000Y-146650000D02*
X107850000Y-145000000D01*
X107000000Y-147500000D02*
X107850000Y-146650000D01*
X107850000Y-142000000D02*
X107850000Y-145000000D01*
X120250000Y-129750000D02*
X120000000Y-129500000D01*
X120250000Y-130750000D02*
X120250000Y-129750000D01*
X119000000Y-129500000D02*
X118500000Y-129500000D01*
X118500000Y-129500000D02*
X118250000Y-129250000D01*
X118250000Y-129250000D02*
X118250000Y-128000000D01*
X107850000Y-142000000D02*
X107850000Y-140900000D01*
X107850000Y-140900000D02*
X108250000Y-140500000D01*
X108250000Y-140500000D02*
X108250000Y-138500000D01*
X108250000Y-138500000D02*
X108750000Y-138000000D01*
X108750000Y-138000000D02*
X107850000Y-137100000D01*
X107850000Y-137000000D02*
X107850000Y-136100000D01*
X107850000Y-137100000D02*
X107850000Y-137000000D01*
X118250000Y-128000000D02*
X118250000Y-129000000D01*
X118250000Y-129000000D02*
X118000000Y-129250000D01*
X118000000Y-129250000D02*
X117250000Y-129250000D01*
X118250000Y-129000000D02*
X118500000Y-129250000D01*
X118500000Y-129250000D02*
X121500000Y-129250000D01*
X119250000Y-129500000D02*
X117000000Y-129500000D01*
X120000000Y-129500000D02*
X119250000Y-129500000D01*
X119250000Y-129500000D02*
X119000000Y-129500000D01*
X120250000Y-129750000D02*
X120500000Y-129500000D01*
X120500000Y-129500000D02*
X121500000Y-129500000D01*
X107850000Y-136000000D02*
X107850000Y-137150000D01*
X107850000Y-137150000D02*
X107500000Y-137500000D01*
X114250000Y-133000000D02*
X112750000Y-134500000D01*
X114250000Y-132386410D02*
X114250000Y-133000000D01*
X116500000Y-130136410D02*
X114250000Y-132386410D01*
X112750000Y-136750000D02*
X111500000Y-138000000D01*
X112750000Y-134500000D02*
X112750000Y-136750000D01*
X116500000Y-128500000D02*
X116500000Y-130136410D01*
X111500000Y-138000000D02*
X108750000Y-138000000D01*
X117000000Y-128000000D02*
X116500000Y-128500000D01*
X118250000Y-128000000D02*
X117000000Y-128000000D01*
X107000000Y-149000000D02*
X106000000Y-149000000D01*
X106000000Y-149000000D02*
X105750000Y-149000000D01*
X105750000Y-149000000D02*
X105750000Y-148750000D01*
X105750000Y-148750000D02*
X105750000Y-148500000D01*
X107500000Y-146750000D02*
X108000000Y-146250000D01*
X105750000Y-148500000D02*
X107500000Y-146750000D01*
X107500000Y-146750000D02*
X107750000Y-146500000D01*
G04 #@! TO.N,/RX*
X110450000Y-143836410D02*
X117000000Y-150386410D01*
X110450000Y-142000000D02*
X110450000Y-143836410D01*
X117000000Y-150386410D02*
X117000000Y-153750000D01*
G04 #@! TO.N,/G4*
X105900000Y-142000000D02*
X105900000Y-145350000D01*
X105900000Y-145350000D02*
X101500000Y-149750000D01*
X99250000Y-151625000D02*
X99250000Y-153549990D01*
X99750000Y-149750000D02*
X99750000Y-151125000D01*
X99750000Y-151125000D02*
X99250000Y-151625000D01*
X99750000Y-149750000D02*
X101000000Y-149750000D01*
X101000000Y-149750000D02*
X101500000Y-149750000D01*
X100500000Y-149750000D02*
X101000000Y-149750000D01*
G04 #@! TO.N,/G3*
X101830000Y-150750000D02*
X101830000Y-154000000D01*
X101830000Y-150056410D02*
X101830000Y-150750000D01*
X106550000Y-145336410D02*
X101830000Y-150056410D01*
X106550000Y-142000000D02*
X106550000Y-145336410D01*
X97000000Y-151250000D02*
X97000000Y-150500000D01*
X97000000Y-150500000D02*
X97000000Y-150750000D01*
X97000000Y-150500000D02*
X97000000Y-149750000D01*
X97250000Y-151250000D02*
X97250000Y-149750000D01*
G04 #@! TO.N,/G2*
X108500000Y-142000000D02*
X108500000Y-143886410D01*
X109450000Y-154000000D02*
X109450000Y-152300000D01*
X109450000Y-152300000D02*
X110500000Y-151250000D01*
X110500000Y-151250000D02*
X110500000Y-145886410D01*
X108500000Y-143886410D02*
X110500000Y-145886410D01*
G04 #@! TO.N,/G1*
X109150000Y-142000000D02*
X109150000Y-143900000D01*
X109150000Y-143900000D02*
X112000000Y-146750000D01*
X112000000Y-146750000D02*
X112000000Y-154000000D01*
G04 #@! TO.N,/RES*
X104370000Y-148880000D02*
X104500000Y-148750000D01*
X104370000Y-154000000D02*
X104370000Y-148880000D01*
X107200000Y-146050000D02*
X107000000Y-146250000D01*
X107200000Y-142000000D02*
X107200000Y-146050000D01*
X104500000Y-148750000D02*
X107000000Y-146250000D01*
X115670000Y-137250000D02*
X115750000Y-137250000D01*
X107200000Y-140325000D02*
X107125000Y-140250000D01*
X107200000Y-142000000D02*
X107200000Y-140325000D01*
X118250000Y-130750000D02*
X116750000Y-130750000D01*
X116750000Y-130750000D02*
X115750000Y-131750000D01*
X115750000Y-131750000D02*
X115750000Y-135000000D01*
X100250000Y-144500000D02*
X101750000Y-144500000D01*
X101750000Y-144500000D02*
X102000000Y-144250000D01*
X102000000Y-144250000D02*
X102000000Y-143750000D01*
G04 #@! TO.N,/TX*
X109800000Y-143822820D02*
X112250000Y-146272820D01*
X109800000Y-142000000D02*
X109800000Y-143822820D01*
X109800000Y-143822820D02*
X114500000Y-148522820D01*
X114500000Y-148522820D02*
X114500000Y-154000000D01*
G04 #@! TO.N,/EnRS*
X111100000Y-142000000D02*
X111100000Y-143850000D01*
X111100000Y-143850000D02*
X119500000Y-152250000D01*
X119500000Y-152250000D02*
X119500000Y-154250000D01*
G04 #@! TO.N,Net-(R1-Pad1)*
X98000000Y-129250000D02*
X98000000Y-127250000D01*
G04 #@! TO.N,/VCCprog*
X120750000Y-144900000D02*
X119800000Y-145850000D01*
X120750000Y-139790000D02*
X120750000Y-144900000D01*
X121700000Y-145850000D02*
X120750000Y-144900000D01*
X121700000Y-147150000D02*
X121700000Y-146250000D01*
X121700000Y-146250000D02*
X121700000Y-145850000D01*
X121700000Y-146650000D02*
X121700000Y-146250000D01*
X119800000Y-147150000D02*
X119800000Y-146500000D01*
X119800000Y-146500000D02*
X119800000Y-146650000D01*
X119800000Y-145850000D02*
X119800000Y-146500000D01*
G04 #@! TO.N,/ADC_T1*
X110450000Y-134800000D02*
X110450000Y-136000000D01*
X115000000Y-130250000D02*
X110450000Y-134800000D01*
X115000000Y-127320000D02*
X115000000Y-130250000D01*
X117070000Y-125250000D02*
X115000000Y-127320000D01*
X117070000Y-124000000D02*
X117070000Y-125250000D01*
G04 #@! TO.N,/ADCT2*
X115450010Y-130549990D02*
X111100000Y-134900000D01*
X115450010Y-127549990D02*
X115450010Y-130549990D01*
X117500000Y-125500000D02*
X115450010Y-127549990D01*
X111100000Y-134900000D02*
X111100000Y-136000000D01*
X119610000Y-125000000D02*
X119110000Y-125500000D01*
X119110000Y-125500000D02*
X117500000Y-125500000D01*
X119610000Y-124000000D02*
X119610000Y-125000000D01*
G04 #@! TO.N,/BOOT_mode*
X105250000Y-142000000D02*
X104800000Y-142000000D01*
X104800000Y-142000000D02*
X96250000Y-142000000D01*
X96250000Y-142000000D02*
X95750000Y-142500000D01*
X95750000Y-142500000D02*
X95750000Y-144000000D01*
X95750000Y-153000000D02*
X96750000Y-154000000D01*
X118210000Y-139960000D02*
X118250000Y-140000000D01*
X118210000Y-139790000D02*
X118210000Y-139960000D01*
X105250000Y-143675000D02*
X105175000Y-143750000D01*
X105250000Y-142000000D02*
X105250000Y-143675000D01*
X94750000Y-150250000D02*
X94750000Y-151500000D01*
X94750000Y-152000000D02*
X94750000Y-151500000D01*
X95750000Y-153000000D02*
X94750000Y-152000000D01*
X95750000Y-150250000D02*
X96000000Y-150000000D01*
X94750000Y-150250000D02*
X95750000Y-150250000D01*
X96000000Y-150000000D02*
X96000000Y-147250000D01*
X96000000Y-147250000D02*
X96000000Y-146750000D01*
X96000000Y-146750000D02*
X96250000Y-146500000D01*
X96250000Y-146500000D02*
X96250000Y-144500000D01*
G04 #@! TO.N,/ADC_3V*
X109800000Y-136000000D02*
X109800000Y-134700000D01*
X109800000Y-134700000D02*
X114500000Y-130000000D01*
X114500000Y-130000000D02*
X114500000Y-124000000D01*
G04 #@! TO.N,/ADC5_6V*
X111990000Y-125000000D02*
X112000000Y-125000000D01*
X111990000Y-124000000D02*
X111990000Y-125000000D01*
X112000000Y-125000000D02*
X113000000Y-126000000D01*
X113000000Y-126000000D02*
X113000000Y-130750000D01*
X109150000Y-134600000D02*
X113000000Y-130750000D01*
X109150000Y-136000000D02*
X109150000Y-134600000D01*
G04 #@! TO.N,/TXboot_SCL*
X104370000Y-125100000D02*
X105000000Y-125730000D01*
X104370000Y-124000000D02*
X104370000Y-125100000D01*
X105000000Y-125730000D02*
X105000000Y-128000000D01*
X107200000Y-136000000D02*
X107200000Y-135000000D01*
X105040000Y-126750000D02*
X105040000Y-132840000D01*
X105450000Y-133250000D02*
X105250000Y-133050000D01*
X105040000Y-132840000D02*
X105450000Y-133250000D01*
X107200000Y-135000000D02*
X105450000Y-133250000D01*
G04 #@! TO.N,/RXboot_SDA*
X101830000Y-125100000D02*
X102500000Y-125770000D01*
X101830000Y-124000000D02*
X101830000Y-125100000D01*
X102500000Y-125770000D02*
X102500000Y-127750000D01*
X104300000Y-132750000D02*
X104286410Y-132750000D01*
X106550000Y-135000000D02*
X104300000Y-132750000D01*
X106550000Y-136000000D02*
X106550000Y-135000000D01*
X104286410Y-132750000D02*
X103750000Y-132213590D01*
X103750000Y-132213590D02*
X102536410Y-131000000D01*
X102536410Y-131000000D02*
X102536410Y-130786410D01*
G04 #@! TO.N,/DIO*
X103400000Y-132500000D02*
X103386410Y-132500000D01*
X105900000Y-135000000D02*
X103400000Y-132500000D01*
X105900000Y-136000000D02*
X105900000Y-135000000D01*
X103386410Y-132500000D02*
X103136410Y-132250000D01*
X103136410Y-132250000D02*
X101636410Y-132250000D01*
X105900000Y-137400000D02*
X106000000Y-137500000D01*
X105900000Y-136000000D02*
X105900000Y-137400000D01*
X101136410Y-127136410D02*
X99250000Y-125250000D01*
X101136410Y-131750000D02*
X101136410Y-127136410D01*
X99250000Y-125250000D02*
X99250000Y-124000000D01*
X101636410Y-132250000D02*
X101136410Y-131750000D01*
G04 #@! TO.N,/CLK*
X118210000Y-137250000D02*
X118250000Y-137250000D01*
X105250000Y-136000000D02*
X105250000Y-138250000D01*
X105250000Y-135000000D02*
X105250000Y-136000000D01*
X103000000Y-132750000D02*
X105250000Y-135000000D01*
X101500000Y-132750000D02*
X103000000Y-132750000D01*
X96750000Y-125250000D02*
X97000000Y-125500000D01*
X100500000Y-127250000D02*
X100500000Y-131750000D01*
X98750000Y-125500000D02*
X100500000Y-127250000D01*
X100500000Y-131750000D02*
X101500000Y-132750000D01*
X97000000Y-125500000D02*
X98750000Y-125500000D01*
X96750000Y-124000000D02*
X96750000Y-125250000D01*
G04 #@! TO.N,Net-(HL1-Pad1)*
X96000000Y-129250000D02*
X96000000Y-131500000D01*
G04 #@! TD*
G04 #@! TO.N,/VCC*
G36*
X95914480Y-125250445D02*
X95991763Y-125282457D01*
X96030534Y-125477364D01*
X96043517Y-125542635D01*
X96098551Y-125625000D01*
X96000680Y-125625000D01*
X95770966Y-125720150D01*
X95595151Y-125895966D01*
X95500000Y-126125680D01*
X95500000Y-126768750D01*
X95656250Y-126925000D01*
X96425000Y-126925000D01*
X96425000Y-126905000D01*
X96575000Y-126905000D01*
X96575000Y-126925000D01*
X96595000Y-126925000D01*
X96595000Y-127075000D01*
X96575000Y-127075000D01*
X96575000Y-127095000D01*
X96425000Y-127095000D01*
X96425000Y-127075000D01*
X95656250Y-127075000D01*
X95500000Y-127231250D01*
X95500000Y-127862756D01*
X95256137Y-127911263D01*
X95049400Y-128049400D01*
X94911263Y-128256137D01*
X94862756Y-128500000D01*
X94862756Y-130000000D01*
X94911263Y-130243863D01*
X95049400Y-130450600D01*
X95250001Y-130584637D01*
X95250001Y-130665363D01*
X95049400Y-130799400D01*
X94911263Y-131006137D01*
X94862756Y-131250000D01*
X94862756Y-132250000D01*
X94911263Y-132493863D01*
X95049400Y-132700600D01*
X95256137Y-132838737D01*
X95438445Y-132875000D01*
X95125680Y-132875000D01*
X94895966Y-132970151D01*
X94720150Y-133145966D01*
X94625000Y-133375680D01*
X94625000Y-134268750D01*
X94781250Y-134425000D01*
X96175000Y-134425000D01*
X96175000Y-134405000D01*
X96325000Y-134405000D01*
X96325000Y-134425000D01*
X97718750Y-134425000D01*
X97875000Y-134268750D01*
X97875000Y-133375680D01*
X97779850Y-133145966D01*
X97604034Y-132970151D01*
X97403880Y-132887244D01*
X98000000Y-132887244D01*
X98012127Y-132884832D01*
X98043516Y-133042635D01*
X98209280Y-133290720D01*
X98457365Y-133456484D01*
X98615168Y-133487873D01*
X98612756Y-133500000D01*
X98612756Y-135500000D01*
X98661263Y-135743863D01*
X98799400Y-135950600D01*
X99006137Y-136088737D01*
X99225000Y-136132271D01*
X99225000Y-136453885D01*
X99381047Y-136830616D01*
X99669384Y-137118953D01*
X100046115Y-137275000D01*
X100453885Y-137275000D01*
X100830616Y-137118953D01*
X101118953Y-136830616D01*
X101275000Y-136453885D01*
X101275000Y-136132271D01*
X101493863Y-136088737D01*
X101700600Y-135950600D01*
X101838737Y-135743863D01*
X101887244Y-135500000D01*
X101887244Y-133500000D01*
X102689341Y-133500000D01*
X104417167Y-135227826D01*
X104412756Y-135250000D01*
X104412756Y-136750000D01*
X104461263Y-136993863D01*
X104500000Y-137051838D01*
X104500001Y-137550430D01*
X104381047Y-137669384D01*
X104225000Y-138046115D01*
X104225000Y-138453885D01*
X104381047Y-138830616D01*
X104669384Y-139118953D01*
X105046115Y-139275000D01*
X105453885Y-139275000D01*
X105830616Y-139118953D01*
X106118953Y-138830616D01*
X106254171Y-138504171D01*
X106580616Y-138368953D01*
X106868953Y-138080616D01*
X107025000Y-137703885D01*
X107025000Y-137387244D01*
X107400000Y-137387244D01*
X107504877Y-137366383D01*
X107525680Y-137375000D01*
X107618750Y-137375000D01*
X107677465Y-137316285D01*
X107850000Y-137201001D01*
X108022535Y-137316285D01*
X108081250Y-137375000D01*
X108174320Y-137375000D01*
X108195123Y-137366383D01*
X108300000Y-137387244D01*
X108700000Y-137387244D01*
X108825000Y-137362380D01*
X108950000Y-137387244D01*
X109350000Y-137387244D01*
X109475000Y-137362380D01*
X109600000Y-137387244D01*
X110000000Y-137387244D01*
X110125000Y-137362380D01*
X110250000Y-137387244D01*
X110650000Y-137387244D01*
X110775000Y-137362380D01*
X110900000Y-137387244D01*
X111300000Y-137387244D01*
X111543863Y-137338737D01*
X111750600Y-137200600D01*
X111888737Y-136993863D01*
X111937244Y-136750000D01*
X111937244Y-135250000D01*
X111916242Y-135144417D01*
X114182756Y-132877904D01*
X114182756Y-138100000D01*
X114231263Y-138343863D01*
X114348954Y-138520000D01*
X114231263Y-138696137D01*
X114182756Y-138940000D01*
X114182756Y-139000000D01*
X113823866Y-139000000D01*
X113750000Y-138985307D01*
X113475041Y-139040000D01*
X113457365Y-139043516D01*
X113209280Y-139209280D01*
X113043516Y-139457365D01*
X112985307Y-139750000D01*
X113000000Y-139823867D01*
X113000000Y-140035035D01*
X112957365Y-140043516D01*
X112709280Y-140209280D01*
X112543516Y-140457365D01*
X112485307Y-140750000D01*
X112543516Y-141042635D01*
X112709280Y-141290720D01*
X112957365Y-141456484D01*
X113176134Y-141500000D01*
X113676134Y-141500000D01*
X113750000Y-141514693D01*
X113823866Y-141500000D01*
X114182756Y-141500000D01*
X114182756Y-144640000D01*
X114231263Y-144883863D01*
X114369400Y-145090600D01*
X114576137Y-145228737D01*
X114820000Y-145277244D01*
X116520000Y-145277244D01*
X116763863Y-145228737D01*
X116940000Y-145111046D01*
X117116137Y-145228737D01*
X117360000Y-145277244D01*
X119060000Y-145277244D01*
X119303863Y-145228737D01*
X119474860Y-145114480D01*
X119321906Y-145267435D01*
X119259280Y-145309280D01*
X119093516Y-145557366D01*
X119063298Y-145709281D01*
X119035307Y-145850000D01*
X119050000Y-145923865D01*
X119050000Y-146082181D01*
X118949400Y-146149400D01*
X118811263Y-146356137D01*
X118762756Y-146600000D01*
X118762756Y-147700000D01*
X118811263Y-147943863D01*
X118949400Y-148150600D01*
X119156137Y-148288737D01*
X119400000Y-148337244D01*
X119928873Y-148337244D01*
X119820150Y-148445966D01*
X119725000Y-148675680D01*
X119725000Y-149118750D01*
X119881250Y-149275000D01*
X120675000Y-149275000D01*
X120675000Y-148331250D01*
X120556935Y-148213185D01*
X120650600Y-148150600D01*
X120750000Y-148001837D01*
X120849400Y-148150600D01*
X120943065Y-148213185D01*
X120825000Y-148331250D01*
X120825000Y-149275000D01*
X121618750Y-149275000D01*
X121775000Y-149118750D01*
X121775000Y-148675680D01*
X121679850Y-148445966D01*
X121571127Y-148337244D01*
X122100000Y-148337244D01*
X122125000Y-148332271D01*
X122125000Y-152875000D01*
X121027932Y-152875000D01*
X120910600Y-152699400D01*
X120703863Y-152561263D01*
X120460000Y-152512756D01*
X120250000Y-152512756D01*
X120250000Y-152323865D01*
X120264693Y-152250000D01*
X120238626Y-152118953D01*
X120206484Y-151957365D01*
X120040720Y-151709280D01*
X119978097Y-151667437D01*
X117891910Y-149581250D01*
X119725000Y-149581250D01*
X119725000Y-150024320D01*
X119820150Y-150254034D01*
X119995966Y-150429849D01*
X120225680Y-150525000D01*
X120518750Y-150525000D01*
X120675000Y-150368750D01*
X120675000Y-149425000D01*
X120825000Y-149425000D01*
X120825000Y-150368750D01*
X120981250Y-150525000D01*
X121274320Y-150525000D01*
X121504034Y-150429849D01*
X121679850Y-150254034D01*
X121775000Y-150024320D01*
X121775000Y-149581250D01*
X121618750Y-149425000D01*
X120825000Y-149425000D01*
X120675000Y-149425000D01*
X119881250Y-149425000D01*
X119725000Y-149581250D01*
X117891910Y-149581250D01*
X111850000Y-143539341D01*
X111850000Y-143051837D01*
X111888737Y-142993863D01*
X111937244Y-142750000D01*
X111937244Y-141250000D01*
X111888737Y-141006137D01*
X111750600Y-140799400D01*
X111543863Y-140661263D01*
X111300000Y-140612756D01*
X110900000Y-140612756D01*
X110775000Y-140637620D01*
X110650000Y-140612756D01*
X110250000Y-140612756D01*
X110125000Y-140637620D01*
X110000000Y-140612756D01*
X109600000Y-140612756D01*
X109475000Y-140637620D01*
X109350000Y-140612756D01*
X108950000Y-140612756D01*
X108825000Y-140637620D01*
X108700000Y-140612756D01*
X108300000Y-140612756D01*
X108195123Y-140633617D01*
X108174320Y-140625000D01*
X108081250Y-140625000D01*
X108077617Y-140628633D01*
X108150000Y-140453885D01*
X108150000Y-140046115D01*
X107993953Y-139669384D01*
X107705616Y-139381047D01*
X107328885Y-139225000D01*
X106921115Y-139225000D01*
X106544384Y-139381047D01*
X106256047Y-139669384D01*
X106100000Y-140046115D01*
X106100000Y-140453885D01*
X106171715Y-140627021D01*
X106100000Y-140612756D01*
X105700000Y-140612756D01*
X105575000Y-140637620D01*
X105450000Y-140612756D01*
X105050000Y-140612756D01*
X104806137Y-140661263D01*
X104599400Y-140799400D01*
X104461263Y-141006137D01*
X104412756Y-141250000D01*
X96323865Y-141250000D01*
X96250000Y-141235307D01*
X96176135Y-141250000D01*
X96176134Y-141250000D01*
X95957365Y-141293516D01*
X95709280Y-141459280D01*
X95667436Y-141521904D01*
X95564831Y-141624509D01*
X95203885Y-141475000D01*
X94796115Y-141475000D01*
X94419384Y-141631047D01*
X94375000Y-141675431D01*
X94375000Y-134731250D01*
X94625000Y-134731250D01*
X94625000Y-135624320D01*
X94720150Y-135854034D01*
X94895966Y-136029849D01*
X95125680Y-136125000D01*
X96018750Y-136125000D01*
X96175000Y-135968750D01*
X96175000Y-134575000D01*
X96325000Y-134575000D01*
X96325000Y-135968750D01*
X96481250Y-136125000D01*
X97374320Y-136125000D01*
X97604034Y-136029849D01*
X97779850Y-135854034D01*
X97875000Y-135624320D01*
X97875000Y-134731250D01*
X97718750Y-134575000D01*
X96325000Y-134575000D01*
X96175000Y-134575000D01*
X94781250Y-134575000D01*
X94625000Y-134731250D01*
X94375000Y-134731250D01*
X94375000Y-125125000D01*
X95789035Y-125125000D01*
X95914480Y-125250445D01*
X95914480Y-125250445D01*
G37*
X95914480Y-125250445D02*
X95991763Y-125282457D01*
X96030534Y-125477364D01*
X96043517Y-125542635D01*
X96098551Y-125625000D01*
X96000680Y-125625000D01*
X95770966Y-125720150D01*
X95595151Y-125895966D01*
X95500000Y-126125680D01*
X95500000Y-126768750D01*
X95656250Y-126925000D01*
X96425000Y-126925000D01*
X96425000Y-126905000D01*
X96575000Y-126905000D01*
X96575000Y-126925000D01*
X96595000Y-126925000D01*
X96595000Y-127075000D01*
X96575000Y-127075000D01*
X96575000Y-127095000D01*
X96425000Y-127095000D01*
X96425000Y-127075000D01*
X95656250Y-127075000D01*
X95500000Y-127231250D01*
X95500000Y-127862756D01*
X95256137Y-127911263D01*
X95049400Y-128049400D01*
X94911263Y-128256137D01*
X94862756Y-128500000D01*
X94862756Y-130000000D01*
X94911263Y-130243863D01*
X95049400Y-130450600D01*
X95250001Y-130584637D01*
X95250001Y-130665363D01*
X95049400Y-130799400D01*
X94911263Y-131006137D01*
X94862756Y-131250000D01*
X94862756Y-132250000D01*
X94911263Y-132493863D01*
X95049400Y-132700600D01*
X95256137Y-132838737D01*
X95438445Y-132875000D01*
X95125680Y-132875000D01*
X94895966Y-132970151D01*
X94720150Y-133145966D01*
X94625000Y-133375680D01*
X94625000Y-134268750D01*
X94781250Y-134425000D01*
X96175000Y-134425000D01*
X96175000Y-134405000D01*
X96325000Y-134405000D01*
X96325000Y-134425000D01*
X97718750Y-134425000D01*
X97875000Y-134268750D01*
X97875000Y-133375680D01*
X97779850Y-133145966D01*
X97604034Y-132970151D01*
X97403880Y-132887244D01*
X98000000Y-132887244D01*
X98012127Y-132884832D01*
X98043516Y-133042635D01*
X98209280Y-133290720D01*
X98457365Y-133456484D01*
X98615168Y-133487873D01*
X98612756Y-133500000D01*
X98612756Y-135500000D01*
X98661263Y-135743863D01*
X98799400Y-135950600D01*
X99006137Y-136088737D01*
X99225000Y-136132271D01*
X99225000Y-136453885D01*
X99381047Y-136830616D01*
X99669384Y-137118953D01*
X100046115Y-137275000D01*
X100453885Y-137275000D01*
X100830616Y-137118953D01*
X101118953Y-136830616D01*
X101275000Y-136453885D01*
X101275000Y-136132271D01*
X101493863Y-136088737D01*
X101700600Y-135950600D01*
X101838737Y-135743863D01*
X101887244Y-135500000D01*
X101887244Y-133500000D01*
X102689341Y-133500000D01*
X104417167Y-135227826D01*
X104412756Y-135250000D01*
X104412756Y-136750000D01*
X104461263Y-136993863D01*
X104500000Y-137051838D01*
X104500001Y-137550430D01*
X104381047Y-137669384D01*
X104225000Y-138046115D01*
X104225000Y-138453885D01*
X104381047Y-138830616D01*
X104669384Y-139118953D01*
X105046115Y-139275000D01*
X105453885Y-139275000D01*
X105830616Y-139118953D01*
X106118953Y-138830616D01*
X106254171Y-138504171D01*
X106580616Y-138368953D01*
X106868953Y-138080616D01*
X107025000Y-137703885D01*
X107025000Y-137387244D01*
X107400000Y-137387244D01*
X107504877Y-137366383D01*
X107525680Y-137375000D01*
X107618750Y-137375000D01*
X107677465Y-137316285D01*
X107850000Y-137201001D01*
X108022535Y-137316285D01*
X108081250Y-137375000D01*
X108174320Y-137375000D01*
X108195123Y-137366383D01*
X108300000Y-137387244D01*
X108700000Y-137387244D01*
X108825000Y-137362380D01*
X108950000Y-137387244D01*
X109350000Y-137387244D01*
X109475000Y-137362380D01*
X109600000Y-137387244D01*
X110000000Y-137387244D01*
X110125000Y-137362380D01*
X110250000Y-137387244D01*
X110650000Y-137387244D01*
X110775000Y-137362380D01*
X110900000Y-137387244D01*
X111300000Y-137387244D01*
X111543863Y-137338737D01*
X111750600Y-137200600D01*
X111888737Y-136993863D01*
X111937244Y-136750000D01*
X111937244Y-135250000D01*
X111916242Y-135144417D01*
X114182756Y-132877904D01*
X114182756Y-138100000D01*
X114231263Y-138343863D01*
X114348954Y-138520000D01*
X114231263Y-138696137D01*
X114182756Y-138940000D01*
X114182756Y-139000000D01*
X113823866Y-139000000D01*
X113750000Y-138985307D01*
X113475041Y-139040000D01*
X113457365Y-139043516D01*
X113209280Y-139209280D01*
X113043516Y-139457365D01*
X112985307Y-139750000D01*
X113000000Y-139823867D01*
X113000000Y-140035035D01*
X112957365Y-140043516D01*
X112709280Y-140209280D01*
X112543516Y-140457365D01*
X112485307Y-140750000D01*
X112543516Y-141042635D01*
X112709280Y-141290720D01*
X112957365Y-141456484D01*
X113176134Y-141500000D01*
X113676134Y-141500000D01*
X113750000Y-141514693D01*
X113823866Y-141500000D01*
X114182756Y-141500000D01*
X114182756Y-144640000D01*
X114231263Y-144883863D01*
X114369400Y-145090600D01*
X114576137Y-145228737D01*
X114820000Y-145277244D01*
X116520000Y-145277244D01*
X116763863Y-145228737D01*
X116940000Y-145111046D01*
X117116137Y-145228737D01*
X117360000Y-145277244D01*
X119060000Y-145277244D01*
X119303863Y-145228737D01*
X119474860Y-145114480D01*
X119321906Y-145267435D01*
X119259280Y-145309280D01*
X119093516Y-145557366D01*
X119063298Y-145709281D01*
X119035307Y-145850000D01*
X119050000Y-145923865D01*
X119050000Y-146082181D01*
X118949400Y-146149400D01*
X118811263Y-146356137D01*
X118762756Y-146600000D01*
X118762756Y-147700000D01*
X118811263Y-147943863D01*
X118949400Y-148150600D01*
X119156137Y-148288737D01*
X119400000Y-148337244D01*
X119928873Y-148337244D01*
X119820150Y-148445966D01*
X119725000Y-148675680D01*
X119725000Y-149118750D01*
X119881250Y-149275000D01*
X120675000Y-149275000D01*
X120675000Y-148331250D01*
X120556935Y-148213185D01*
X120650600Y-148150600D01*
X120750000Y-148001837D01*
X120849400Y-148150600D01*
X120943065Y-148213185D01*
X120825000Y-148331250D01*
X120825000Y-149275000D01*
X121618750Y-149275000D01*
X121775000Y-149118750D01*
X121775000Y-148675680D01*
X121679850Y-148445966D01*
X121571127Y-148337244D01*
X122100000Y-148337244D01*
X122125000Y-148332271D01*
X122125000Y-152875000D01*
X121027932Y-152875000D01*
X120910600Y-152699400D01*
X120703863Y-152561263D01*
X120460000Y-152512756D01*
X120250000Y-152512756D01*
X120250000Y-152323865D01*
X120264693Y-152250000D01*
X120238626Y-152118953D01*
X120206484Y-151957365D01*
X120040720Y-151709280D01*
X119978097Y-151667437D01*
X117891910Y-149581250D01*
X119725000Y-149581250D01*
X119725000Y-150024320D01*
X119820150Y-150254034D01*
X119995966Y-150429849D01*
X120225680Y-150525000D01*
X120518750Y-150525000D01*
X120675000Y-150368750D01*
X120675000Y-149425000D01*
X120825000Y-149425000D01*
X120825000Y-150368750D01*
X120981250Y-150525000D01*
X121274320Y-150525000D01*
X121504034Y-150429849D01*
X121679850Y-150254034D01*
X121775000Y-150024320D01*
X121775000Y-149581250D01*
X121618750Y-149425000D01*
X120825000Y-149425000D01*
X120675000Y-149425000D01*
X119881250Y-149425000D01*
X119725000Y-149581250D01*
X117891910Y-149581250D01*
X111850000Y-143539341D01*
X111850000Y-143051837D01*
X111888737Y-142993863D01*
X111937244Y-142750000D01*
X111937244Y-141250000D01*
X111888737Y-141006137D01*
X111750600Y-140799400D01*
X111543863Y-140661263D01*
X111300000Y-140612756D01*
X110900000Y-140612756D01*
X110775000Y-140637620D01*
X110650000Y-140612756D01*
X110250000Y-140612756D01*
X110125000Y-140637620D01*
X110000000Y-140612756D01*
X109600000Y-140612756D01*
X109475000Y-140637620D01*
X109350000Y-140612756D01*
X108950000Y-140612756D01*
X108825000Y-140637620D01*
X108700000Y-140612756D01*
X108300000Y-140612756D01*
X108195123Y-140633617D01*
X108174320Y-140625000D01*
X108081250Y-140625000D01*
X108077617Y-140628633D01*
X108150000Y-140453885D01*
X108150000Y-140046115D01*
X107993953Y-139669384D01*
X107705616Y-139381047D01*
X107328885Y-139225000D01*
X106921115Y-139225000D01*
X106544384Y-139381047D01*
X106256047Y-139669384D01*
X106100000Y-140046115D01*
X106100000Y-140453885D01*
X106171715Y-140627021D01*
X106100000Y-140612756D01*
X105700000Y-140612756D01*
X105575000Y-140637620D01*
X105450000Y-140612756D01*
X105050000Y-140612756D01*
X104806137Y-140661263D01*
X104599400Y-140799400D01*
X104461263Y-141006137D01*
X104412756Y-141250000D01*
X96323865Y-141250000D01*
X96250000Y-141235307D01*
X96176135Y-141250000D01*
X96176134Y-141250000D01*
X95957365Y-141293516D01*
X95709280Y-141459280D01*
X95667436Y-141521904D01*
X95564831Y-141624509D01*
X95203885Y-141475000D01*
X94796115Y-141475000D01*
X94419384Y-141631047D01*
X94375000Y-141675431D01*
X94375000Y-134731250D01*
X94625000Y-134731250D01*
X94625000Y-135624320D01*
X94720150Y-135854034D01*
X94895966Y-136029849D01*
X95125680Y-136125000D01*
X96018750Y-136125000D01*
X96175000Y-135968750D01*
X96175000Y-134575000D01*
X96325000Y-134575000D01*
X96325000Y-135968750D01*
X96481250Y-136125000D01*
X97374320Y-136125000D01*
X97604034Y-136029849D01*
X97779850Y-135854034D01*
X97875000Y-135624320D01*
X97875000Y-134731250D01*
X97718750Y-134575000D01*
X96325000Y-134575000D01*
X96175000Y-134575000D01*
X94781250Y-134575000D01*
X94625000Y-134731250D01*
X94375000Y-134731250D01*
X94375000Y-125125000D01*
X95789035Y-125125000D01*
X95914480Y-125250445D01*
G36*
X107959281Y-144427130D02*
X108021904Y-144468973D01*
X109750001Y-146197072D01*
X109750001Y-147665364D01*
X109743863Y-147661263D01*
X109500000Y-147612756D01*
X108500000Y-147612756D01*
X108256137Y-147661263D01*
X108049400Y-147799400D01*
X108002890Y-147869007D01*
X107854034Y-147720150D01*
X107624320Y-147625000D01*
X107231250Y-147625000D01*
X107075000Y-147781250D01*
X107075000Y-148925000D01*
X107095000Y-148925000D01*
X107095000Y-149075000D01*
X107075000Y-149075000D01*
X107075000Y-150218750D01*
X107231250Y-150375000D01*
X107624320Y-150375000D01*
X107854034Y-150279850D01*
X108002890Y-150130993D01*
X108049400Y-150200600D01*
X108103221Y-150236562D01*
X107975000Y-150546115D01*
X107975000Y-150953885D01*
X108131047Y-151330616D01*
X108419384Y-151618953D01*
X108796115Y-151775000D01*
X108898777Y-151775000D01*
X108803472Y-151917635D01*
X108743517Y-152007365D01*
X108685307Y-152300000D01*
X108700001Y-152373870D01*
X108700001Y-152512756D01*
X108600000Y-152512756D01*
X108356137Y-152561263D01*
X108175706Y-152681823D01*
X108114034Y-152620150D01*
X107884320Y-152525000D01*
X107141250Y-152525000D01*
X106985000Y-152681250D01*
X106985000Y-152875000D01*
X106835000Y-152875000D01*
X106835000Y-152681250D01*
X106678750Y-152525000D01*
X105935680Y-152525000D01*
X105705966Y-152620150D01*
X105644294Y-152681823D01*
X105463863Y-152561263D01*
X105220000Y-152512756D01*
X105120000Y-152512756D01*
X105120000Y-149579569D01*
X105368953Y-149330616D01*
X105410111Y-149231250D01*
X105875000Y-149231250D01*
X105875000Y-149874320D01*
X105970151Y-150104034D01*
X106145966Y-150279850D01*
X106375680Y-150375000D01*
X106768750Y-150375000D01*
X106925000Y-150218750D01*
X106925000Y-149075000D01*
X106031250Y-149075000D01*
X105875000Y-149231250D01*
X105410111Y-149231250D01*
X105525000Y-148953885D01*
X105525000Y-148785659D01*
X105875000Y-148435659D01*
X105875000Y-148768750D01*
X106031250Y-148925000D01*
X106925000Y-148925000D01*
X106925000Y-147781250D01*
X106768750Y-147625000D01*
X106685660Y-147625000D01*
X107582561Y-146728099D01*
X107582563Y-146728096D01*
X107678094Y-146632565D01*
X107740720Y-146590720D01*
X107906484Y-146342635D01*
X107950000Y-146123866D01*
X107964693Y-146050000D01*
X107950000Y-145976134D01*
X107950000Y-144413240D01*
X107959281Y-144427130D01*
X107959281Y-144427130D01*
G37*
X107959281Y-144427130D02*
X108021904Y-144468973D01*
X109750001Y-146197072D01*
X109750001Y-147665364D01*
X109743863Y-147661263D01*
X109500000Y-147612756D01*
X108500000Y-147612756D01*
X108256137Y-147661263D01*
X108049400Y-147799400D01*
X108002890Y-147869007D01*
X107854034Y-147720150D01*
X107624320Y-147625000D01*
X107231250Y-147625000D01*
X107075000Y-147781250D01*
X107075000Y-148925000D01*
X107095000Y-148925000D01*
X107095000Y-149075000D01*
X107075000Y-149075000D01*
X107075000Y-150218750D01*
X107231250Y-150375000D01*
X107624320Y-150375000D01*
X107854034Y-150279850D01*
X108002890Y-150130993D01*
X108049400Y-150200600D01*
X108103221Y-150236562D01*
X107975000Y-150546115D01*
X107975000Y-150953885D01*
X108131047Y-151330616D01*
X108419384Y-151618953D01*
X108796115Y-151775000D01*
X108898777Y-151775000D01*
X108803472Y-151917635D01*
X108743517Y-152007365D01*
X108685307Y-152300000D01*
X108700001Y-152373870D01*
X108700001Y-152512756D01*
X108600000Y-152512756D01*
X108356137Y-152561263D01*
X108175706Y-152681823D01*
X108114034Y-152620150D01*
X107884320Y-152525000D01*
X107141250Y-152525000D01*
X106985000Y-152681250D01*
X106985000Y-152875000D01*
X106835000Y-152875000D01*
X106835000Y-152681250D01*
X106678750Y-152525000D01*
X105935680Y-152525000D01*
X105705966Y-152620150D01*
X105644294Y-152681823D01*
X105463863Y-152561263D01*
X105220000Y-152512756D01*
X105120000Y-152512756D01*
X105120000Y-149579569D01*
X105368953Y-149330616D01*
X105410111Y-149231250D01*
X105875000Y-149231250D01*
X105875000Y-149874320D01*
X105970151Y-150104034D01*
X106145966Y-150279850D01*
X106375680Y-150375000D01*
X106768750Y-150375000D01*
X106925000Y-150218750D01*
X106925000Y-149075000D01*
X106031250Y-149075000D01*
X105875000Y-149231250D01*
X105410111Y-149231250D01*
X105525000Y-148953885D01*
X105525000Y-148785659D01*
X105875000Y-148435659D01*
X105875000Y-148768750D01*
X106031250Y-148925000D01*
X106925000Y-148925000D01*
X106925000Y-147781250D01*
X106768750Y-147625000D01*
X106685660Y-147625000D01*
X107582561Y-146728099D01*
X107582563Y-146728096D01*
X107678094Y-146632565D01*
X107740720Y-146590720D01*
X107906484Y-146342635D01*
X107950000Y-146123866D01*
X107964693Y-146050000D01*
X107950000Y-145976134D01*
X107950000Y-144413240D01*
X107959281Y-144427130D01*
G36*
X107655000Y-128675000D02*
X107675000Y-128675000D01*
X107675000Y-128825000D01*
X107655000Y-128825000D01*
X107655000Y-132068750D01*
X107811250Y-132225000D01*
X108554320Y-132225000D01*
X108784034Y-132129850D01*
X108845706Y-132068177D01*
X108860967Y-132078374D01*
X108021904Y-132917437D01*
X107959281Y-132959280D01*
X107862095Y-133104730D01*
X107793517Y-133207365D01*
X107735307Y-133500000D01*
X107750001Y-133573870D01*
X107750001Y-134473169D01*
X107740720Y-134459280D01*
X107678097Y-134417437D01*
X105928098Y-132667439D01*
X105790000Y-132529341D01*
X105790000Y-132237244D01*
X105890000Y-132237244D01*
X106133863Y-132188737D01*
X106314294Y-132068177D01*
X106375966Y-132129850D01*
X106605680Y-132225000D01*
X107348750Y-132225000D01*
X107505000Y-132068750D01*
X107505000Y-128825000D01*
X107485000Y-128825000D01*
X107485000Y-128675000D01*
X107505000Y-128675000D01*
X107505000Y-128655000D01*
X107655000Y-128655000D01*
X107655000Y-128675000D01*
X107655000Y-128675000D01*
G37*
X107655000Y-128675000D02*
X107675000Y-128675000D01*
X107675000Y-128825000D01*
X107655000Y-128825000D01*
X107655000Y-132068750D01*
X107811250Y-132225000D01*
X108554320Y-132225000D01*
X108784034Y-132129850D01*
X108845706Y-132068177D01*
X108860967Y-132078374D01*
X108021904Y-132917437D01*
X107959281Y-132959280D01*
X107862095Y-133104730D01*
X107793517Y-133207365D01*
X107735307Y-133500000D01*
X107750001Y-133573870D01*
X107750001Y-134473169D01*
X107740720Y-134459280D01*
X107678097Y-134417437D01*
X105928098Y-132667439D01*
X105790000Y-132529341D01*
X105790000Y-132237244D01*
X105890000Y-132237244D01*
X106133863Y-132188737D01*
X106314294Y-132068177D01*
X106375966Y-132129850D01*
X106605680Y-132225000D01*
X107348750Y-132225000D01*
X107505000Y-132068750D01*
X107505000Y-128825000D01*
X107485000Y-128825000D01*
X107485000Y-128675000D01*
X107505000Y-128675000D01*
X107505000Y-128655000D01*
X107655000Y-128655000D01*
X107655000Y-128675000D01*
G36*
X122125000Y-132652904D02*
X121813415Y-132186585D01*
X121325516Y-131860581D01*
X121280820Y-131851690D01*
X121375000Y-131624320D01*
X121375000Y-130981250D01*
X121218750Y-130825000D01*
X120325000Y-130825000D01*
X120325000Y-130845000D01*
X120175000Y-130845000D01*
X120175000Y-130825000D01*
X120155000Y-130825000D01*
X120155000Y-130675000D01*
X120175000Y-130675000D01*
X120175000Y-130655000D01*
X120325000Y-130655000D01*
X120325000Y-130675000D01*
X121218750Y-130675000D01*
X121375000Y-130518750D01*
X121375000Y-129875680D01*
X121279849Y-129645966D01*
X121104034Y-129470150D01*
X120874320Y-129375000D01*
X120811555Y-129375000D01*
X120993863Y-129338737D01*
X121200600Y-129200600D01*
X121338737Y-128993863D01*
X121387244Y-128750000D01*
X121387244Y-127250000D01*
X121338737Y-127006137D01*
X121319376Y-126977162D01*
X121580616Y-126868953D01*
X121868953Y-126580616D01*
X122025000Y-126203885D01*
X122025000Y-125796115D01*
X121868953Y-125419384D01*
X121580616Y-125131047D01*
X121566017Y-125125000D01*
X122125000Y-125125000D01*
X122125000Y-132652904D01*
X122125000Y-132652904D01*
G37*
X122125000Y-132652904D02*
X121813415Y-132186585D01*
X121325516Y-131860581D01*
X121280820Y-131851690D01*
X121375000Y-131624320D01*
X121375000Y-130981250D01*
X121218750Y-130825000D01*
X120325000Y-130825000D01*
X120325000Y-130845000D01*
X120175000Y-130845000D01*
X120175000Y-130825000D01*
X120155000Y-130825000D01*
X120155000Y-130675000D01*
X120175000Y-130675000D01*
X120175000Y-130655000D01*
X120325000Y-130655000D01*
X120325000Y-130675000D01*
X121218750Y-130675000D01*
X121375000Y-130518750D01*
X121375000Y-129875680D01*
X121279849Y-129645966D01*
X121104034Y-129470150D01*
X120874320Y-129375000D01*
X120811555Y-129375000D01*
X120993863Y-129338737D01*
X121200600Y-129200600D01*
X121338737Y-128993863D01*
X121387244Y-128750000D01*
X121387244Y-127250000D01*
X121338737Y-127006137D01*
X121319376Y-126977162D01*
X121580616Y-126868953D01*
X121868953Y-126580616D01*
X122025000Y-126203885D01*
X122025000Y-125796115D01*
X121868953Y-125419384D01*
X121580616Y-125131047D01*
X121566017Y-125125000D01*
X122125000Y-125125000D01*
X122125000Y-132652904D01*
G36*
X119975000Y-125796115D02*
X119975000Y-125964340D01*
X119771905Y-126167435D01*
X119709280Y-126209280D01*
X119543516Y-126457366D01*
X119503545Y-126658311D01*
X119502471Y-126663713D01*
X119299400Y-126799400D01*
X119252890Y-126869007D01*
X119104034Y-126720150D01*
X118874320Y-126625000D01*
X118481250Y-126625000D01*
X118325000Y-126781250D01*
X118325000Y-127925000D01*
X118345000Y-127925000D01*
X118345000Y-128075000D01*
X118325000Y-128075000D01*
X118325000Y-128095000D01*
X118175000Y-128095000D01*
X118175000Y-128075000D01*
X117281250Y-128075000D01*
X117125000Y-128231250D01*
X117125000Y-128874320D01*
X117220151Y-129104034D01*
X117395966Y-129279850D01*
X117625680Y-129375000D01*
X117688445Y-129375000D01*
X117506137Y-129411263D01*
X117299400Y-129549400D01*
X117161263Y-129756137D01*
X117112756Y-130000000D01*
X116823866Y-130000000D01*
X116750000Y-129985307D01*
X116457364Y-130043516D01*
X116402873Y-130079926D01*
X116209280Y-130209280D01*
X116200010Y-130223154D01*
X116200010Y-127860649D01*
X116934979Y-127125680D01*
X117125000Y-127125680D01*
X117125000Y-127768750D01*
X117281250Y-127925000D01*
X118175000Y-127925000D01*
X118175000Y-126781250D01*
X118018750Y-126625000D01*
X117625680Y-126625000D01*
X117395966Y-126720150D01*
X117220151Y-126895966D01*
X117125000Y-127125680D01*
X116934979Y-127125680D01*
X117810660Y-126250000D01*
X119036135Y-126250000D01*
X119110000Y-126264693D01*
X119183865Y-126250000D01*
X119183866Y-126250000D01*
X119402635Y-126206484D01*
X119650720Y-126040720D01*
X119692565Y-125978094D01*
X120046033Y-125624627D01*
X119975000Y-125796115D01*
X119975000Y-125796115D01*
G37*
X119975000Y-125796115D02*
X119975000Y-125964340D01*
X119771905Y-126167435D01*
X119709280Y-126209280D01*
X119543516Y-126457366D01*
X119503545Y-126658311D01*
X119502471Y-126663713D01*
X119299400Y-126799400D01*
X119252890Y-126869007D01*
X119104034Y-126720150D01*
X118874320Y-126625000D01*
X118481250Y-126625000D01*
X118325000Y-126781250D01*
X118325000Y-127925000D01*
X118345000Y-127925000D01*
X118345000Y-128075000D01*
X118325000Y-128075000D01*
X118325000Y-128095000D01*
X118175000Y-128095000D01*
X118175000Y-128075000D01*
X117281250Y-128075000D01*
X117125000Y-128231250D01*
X117125000Y-128874320D01*
X117220151Y-129104034D01*
X117395966Y-129279850D01*
X117625680Y-129375000D01*
X117688445Y-129375000D01*
X117506137Y-129411263D01*
X117299400Y-129549400D01*
X117161263Y-129756137D01*
X117112756Y-130000000D01*
X116823866Y-130000000D01*
X116750000Y-129985307D01*
X116457364Y-130043516D01*
X116402873Y-130079926D01*
X116209280Y-130209280D01*
X116200010Y-130223154D01*
X116200010Y-127860649D01*
X116934979Y-127125680D01*
X117125000Y-127125680D01*
X117125000Y-127768750D01*
X117281250Y-127925000D01*
X118175000Y-127925000D01*
X118175000Y-126781250D01*
X118018750Y-126625000D01*
X117625680Y-126625000D01*
X117395966Y-126720150D01*
X117220151Y-126895966D01*
X117125000Y-127125680D01*
X116934979Y-127125680D01*
X117810660Y-126250000D01*
X119036135Y-126250000D01*
X119110000Y-126264693D01*
X119183865Y-126250000D01*
X119183866Y-126250000D01*
X119402635Y-126206484D01*
X119650720Y-126040720D01*
X119692565Y-125978094D01*
X120046033Y-125624627D01*
X119975000Y-125796115D01*
G36*
X119299400Y-129200600D02*
X119506137Y-129338737D01*
X119688445Y-129375000D01*
X119625680Y-129375000D01*
X119395966Y-129470150D01*
X119247110Y-129619007D01*
X119200600Y-129549400D01*
X118993863Y-129411263D01*
X118811555Y-129375000D01*
X118874320Y-129375000D01*
X119104034Y-129279850D01*
X119252890Y-129130993D01*
X119299400Y-129200600D01*
X119299400Y-129200600D01*
G37*
X119299400Y-129200600D02*
X119506137Y-129338737D01*
X119688445Y-129375000D01*
X119625680Y-129375000D01*
X119395966Y-129470150D01*
X119247110Y-129619007D01*
X119200600Y-129549400D01*
X118993863Y-129411263D01*
X118811555Y-129375000D01*
X118874320Y-129375000D01*
X119104034Y-129279850D01*
X119252890Y-129130993D01*
X119299400Y-129200600D01*
G36*
X120174998Y-129531248D02*
X120030994Y-129387244D01*
X120174998Y-129387244D01*
X120174998Y-129531248D01*
X120174998Y-129531248D01*
G37*
X120174998Y-129531248D02*
X120030994Y-129387244D01*
X120174998Y-129387244D01*
X120174998Y-129531248D01*
G36*
X120325002Y-129531248D02*
X120325002Y-129387244D01*
X120469006Y-129387244D01*
X120325002Y-129531248D01*
X120325002Y-129531248D01*
G37*
X120325002Y-129531248D02*
X120325002Y-129387244D01*
X120469006Y-129387244D01*
X120325002Y-129531248D01*
G36*
X118174998Y-129362756D02*
X118030994Y-129362756D01*
X118174998Y-129218752D01*
X118174998Y-129362756D01*
X118174998Y-129362756D01*
G37*
X118174998Y-129362756D02*
X118030994Y-129362756D01*
X118174998Y-129218752D01*
X118174998Y-129362756D01*
G36*
X118469006Y-129362756D02*
X118325002Y-129362756D01*
X118325002Y-129218752D01*
X118469006Y-129362756D01*
X118469006Y-129362756D01*
G37*
X118469006Y-129362756D02*
X118325002Y-129362756D01*
X118325002Y-129218752D01*
X118469006Y-129362756D01*
G04 #@! TD*
M02*
