M48
;DRILL file {KiCad (5.0.0-3-g5ebb6b6)} date 
;FORMAT={3:3/ absolute / metric / keep zeros}
FMAT,2
METRIC,TZ
T1C0.400
T2C1.000
%
G90
G05
M71
T1
X095000Y-142500
X097250Y-151250
X098500Y-145500
X099250Y-131750
X100250Y-136250
X102000Y-143750
X104500Y-148750
X105175Y-143750
X105250Y-138250
X106000Y-137500
X107125Y-140250
X109000Y-150750
X110250Y-126750
X115750Y-137250
X115750Y-139750
X118250Y-137250
X118250Y-140000
X120750Y-137250
X121000Y-126000
T2
X096750Y-154000
X099290Y-154000
X101830Y-154000
X104370Y-154000
X106910Y-154000
X109450Y-154000
X111990Y-154000
X114530Y-154000
X117070Y-154000
X119610Y-154000
X096750Y-124000
X099290Y-124000
X101830Y-124000
X104370Y-124000
X106910Y-124000
X109450Y-124000
X111990Y-124000
X114530Y-124000
X117070Y-124000
X119610Y-124000
T0
M30
