G04 #@! TF.GenerationSoftware,KiCad,Pcbnew,(5.0.0-3-g5ebb6b6)*
G04 #@! TF.CreationDate,2019-03-01T00:57:23+03:00*
G04 #@! TF.ProjectId,mae,6D61652E6B696361645F706362000000,rev?*
G04 #@! TF.SameCoordinates,Original*
G04 #@! TF.FileFunction,Soldermask,Bot*
G04 #@! TF.FilePolarity,Negative*
%FSLAX46Y46*%
G04 Gerber Fmt 4.6, Leading zero omitted, Abs format (unit mm)*
G04 Created by KiCad (PCBNEW (5.0.0-3-g5ebb6b6)) date *
%MOMM*%
%LPD*%
G01*
G04 APERTURE LIST*
%ADD10C,0.100000*%
G04 APERTURE END LIST*
D10*
G36*
X120510000Y-154900000D02*
X118710000Y-154900000D01*
X118710000Y-153100000D01*
X120510000Y-153100000D01*
X120510000Y-154900000D01*
X120510000Y-154900000D01*
G37*
G36*
X117970000Y-154900000D02*
X116170000Y-154900000D01*
X116170000Y-153100000D01*
X117970000Y-153100000D01*
X117970000Y-154900000D01*
X117970000Y-154900000D01*
G37*
G36*
X115430000Y-154900000D02*
X113630000Y-154900000D01*
X113630000Y-153100000D01*
X115430000Y-153100000D01*
X115430000Y-154900000D01*
X115430000Y-154900000D01*
G37*
G36*
X112890000Y-154900000D02*
X111090000Y-154900000D01*
X111090000Y-153100000D01*
X112890000Y-153100000D01*
X112890000Y-154900000D01*
X112890000Y-154900000D01*
G37*
G36*
X110350000Y-154900000D02*
X108550000Y-154900000D01*
X108550000Y-153100000D01*
X110350000Y-153100000D01*
X110350000Y-154900000D01*
X110350000Y-154900000D01*
G37*
G36*
X107810000Y-154900000D02*
X106010000Y-154900000D01*
X106010000Y-153100000D01*
X107810000Y-153100000D01*
X107810000Y-154900000D01*
X107810000Y-154900000D01*
G37*
G36*
X105270000Y-154900000D02*
X103470000Y-154900000D01*
X103470000Y-153100000D01*
X105270000Y-153100000D01*
X105270000Y-154900000D01*
X105270000Y-154900000D01*
G37*
G36*
X102730000Y-154900000D02*
X100930000Y-154900000D01*
X100930000Y-153100000D01*
X102730000Y-153100000D01*
X102730000Y-154900000D01*
X102730000Y-154900000D01*
G37*
G36*
X100190000Y-154900000D02*
X98390000Y-154900000D01*
X98390000Y-153100000D01*
X100190000Y-153100000D01*
X100190000Y-154900000D01*
X100190000Y-154900000D01*
G37*
G36*
X97012521Y-153134586D02*
X97176309Y-153202429D01*
X97323720Y-153300926D01*
X97449074Y-153426280D01*
X97547571Y-153573691D01*
X97615414Y-153737479D01*
X97650000Y-153911356D01*
X97650000Y-154088644D01*
X97615414Y-154262521D01*
X97547571Y-154426309D01*
X97449074Y-154573720D01*
X97323720Y-154699074D01*
X97176309Y-154797571D01*
X97012521Y-154865414D01*
X96838644Y-154900000D01*
X96661356Y-154900000D01*
X96487479Y-154865414D01*
X96323691Y-154797571D01*
X96176280Y-154699074D01*
X96050926Y-154573720D01*
X95952429Y-154426309D01*
X95884586Y-154262521D01*
X95850000Y-154088644D01*
X95850000Y-153911356D01*
X95884586Y-153737479D01*
X95952429Y-153573691D01*
X96050926Y-153426280D01*
X96176280Y-153300926D01*
X96323691Y-153202429D01*
X96487479Y-153134586D01*
X96661356Y-153100000D01*
X96838644Y-153100000D01*
X97012521Y-153134586D01*
X97012521Y-153134586D01*
G37*
G36*
X97012521Y-123134586D02*
X97176309Y-123202429D01*
X97323720Y-123300926D01*
X97449074Y-123426280D01*
X97547571Y-123573691D01*
X97615414Y-123737479D01*
X97650000Y-123911356D01*
X97650000Y-124088644D01*
X97615414Y-124262521D01*
X97547571Y-124426309D01*
X97449074Y-124573720D01*
X97323720Y-124699074D01*
X97176309Y-124797571D01*
X97012521Y-124865414D01*
X96838644Y-124900000D01*
X96661356Y-124900000D01*
X96487479Y-124865414D01*
X96323691Y-124797571D01*
X96176280Y-124699074D01*
X96050926Y-124573720D01*
X95952429Y-124426309D01*
X95884586Y-124262521D01*
X95850000Y-124088644D01*
X95850000Y-123911356D01*
X95884586Y-123737479D01*
X95952429Y-123573691D01*
X96050926Y-123426280D01*
X96176280Y-123300926D01*
X96323691Y-123202429D01*
X96487479Y-123134586D01*
X96661356Y-123100000D01*
X96838644Y-123100000D01*
X97012521Y-123134586D01*
X97012521Y-123134586D01*
G37*
G36*
X117970000Y-124900000D02*
X116170000Y-124900000D01*
X116170000Y-123100000D01*
X117970000Y-123100000D01*
X117970000Y-124900000D01*
X117970000Y-124900000D01*
G37*
G36*
X115430000Y-124900000D02*
X113630000Y-124900000D01*
X113630000Y-123100000D01*
X115430000Y-123100000D01*
X115430000Y-124900000D01*
X115430000Y-124900000D01*
G37*
G36*
X112890000Y-124900000D02*
X111090000Y-124900000D01*
X111090000Y-123100000D01*
X112890000Y-123100000D01*
X112890000Y-124900000D01*
X112890000Y-124900000D01*
G37*
G36*
X110350000Y-124900000D02*
X108550000Y-124900000D01*
X108550000Y-123100000D01*
X110350000Y-123100000D01*
X110350000Y-124900000D01*
X110350000Y-124900000D01*
G37*
G36*
X107810000Y-124900000D02*
X106010000Y-124900000D01*
X106010000Y-123100000D01*
X107810000Y-123100000D01*
X107810000Y-124900000D01*
X107810000Y-124900000D01*
G37*
G36*
X105270000Y-124900000D02*
X103470000Y-124900000D01*
X103470000Y-123100000D01*
X105270000Y-123100000D01*
X105270000Y-124900000D01*
X105270000Y-124900000D01*
G37*
G36*
X102730000Y-124900000D02*
X100930000Y-124900000D01*
X100930000Y-123100000D01*
X102730000Y-123100000D01*
X102730000Y-124900000D01*
X102730000Y-124900000D01*
G37*
G36*
X100190000Y-124900000D02*
X98390000Y-124900000D01*
X98390000Y-123100000D01*
X100190000Y-123100000D01*
X100190000Y-124900000D01*
X100190000Y-124900000D01*
G37*
G36*
X120510000Y-124900000D02*
X118710000Y-124900000D01*
X118710000Y-123100000D01*
X120510000Y-123100000D01*
X120510000Y-124900000D01*
X120510000Y-124900000D01*
G37*
M02*
